<?xml version="1.0" standalone="no"?>
<!DOCTYPE svg PUBLIC "-//W3C//DTD SVG 20010904//EN"
 "http://www.w3.org/TR/2001/REC-SVG-20010904/DTD/svg10.dtd">
<svg version="1.0" xmlns="http://www.w3.org/2000/svg"
 width="900.000000pt" height="291.000000pt" viewBox="0 0 900.000000 291.000000"
 preserveAspectRatio="xMidYMid meet">
<metadata>
Created by potrace 1.10, written by Peter Selinger 2001-2011
</metadata>
<g transform="translate(0.000000,291.000000) scale(0.100000,-0.100000)"
fill="#f56565" stroke="none">
<path d="M4510 2421 c-56 -7 -132 -31 -172 -53 -33 -18 -101 -70 -116 -88 -74
-88 -109 -321 -73 -490 31 -153 92 -228 283 -356 129 -86 258 -182 280 -209
41 -50 51 -253 15 -308 -15 -23 -24 -27 -65 -27 -74 0 -82 21 -82 209 l0 150
-201 3 c-111 2 -206 0 -212 -4 -7 -4 -10 -58 -9 -159 4 -257 53 -356 216 -436
97 -49 167 -63 308 -63 254 0 425 92 483 259 15 45 18 84 18 230 0 297 -35
373 -238 527 -44 33 -127 89 -185 124 -138 83 -176 124 -185 201 -9 77 2 156
26 180 19 19 64 25 85 11 30 -20 44 -103 44 -265 0 -4 93 -6 208 -5 l207 3 3
105 c3 111 -17 231 -47 280 -39 65 -132 127 -246 164 -57 18 -260 28 -345 17z"/>
<path d="M5341 2386 c-8 -10 -10 -250 -9 -887 l3 -874 400 0 400 0 3 164 c2
110 -1 168 -9 177 -8 10 -51 14 -168 16 l-156 3 0 190 0 190 138 3 137 3 -2
167 -3 167 -130 3 c-88 2 -132 7 -137 15 -13 21 -10 291 4 305 8 8 56 12 149
12 116 0 138 2 143 16 12 31 7 319 -6 332 -19 19 -741 17 -757 -2z"/>
<path d="M6287 2388 c-16 -12 -17 -74 -15 -888 l3 -875 188 -3 c146 -2 187 0
187 10 0 7 0 174 0 370 0 234 3 359 10 363 6 3 13 -2 16 -12 3 -10 11 -34 19
-53 7 -19 20 -62 29 -95 10 -33 22 -73 28 -90 5 -16 14 -46 18 -65 4 -19 13
-48 18 -65 6 -16 17 -52 25 -80 31 -108 48 -162 66 -220 l20 -60 203 0 203 0
3 875 c2 814 1 876 -15 888 -18 13 -325 18 -357 6 -14 -5 -16 -47 -16 -369 0
-234 -4 -366 -10 -370 -6 -3 -13 2 -16 12 -3 10 -11 34 -19 53 -7 19 -34 103
-60 185 -26 83 -67 209 -90 280 -23 72 -45 142 -49 157 -13 55 -23 58 -205 58
-118 0 -172 -4 -184 -12z"/>
<path d="M7498 2395 c-5 -5 -8 -406 -8 -892 l0 -884 413 3 c410 4 439 6 497
39 8 5 24 13 35 18 26 12 69 59 88 96 37 77 42 153 42 710 0 661 -2 678 -100
783 -48 53 -94 77 -189 103 -61 16 -122 20 -421 25 -192 4 -353 3 -357 -1z
m577 -326 c20 -19 20 -33 20 -560 l0 -541 -29 -24 c-22 -20 -37 -24 -70 -22
l-41 3 -3 574 c-2 437 1 577 10 588 16 20 86 9 113 -18z"/>
<path d="M97 2383 c-4 -3 -7 -399 -7 -880 l0 -873 220 0 220 0 0 369 0 369 23
6 c12 3 75 6 140 6 l117 0 0 155 c0 182 17 164 -160 168 l-115 2 0 170 0 170
135 2 c200 4 180 -15 180 172 l0 159 -31 6 c-42 8 -714 8 -722 -1z"/>
<path d="M997 2383 c-4 -3 -7 -399 -7 -880 l0 -873 215 2 215 3 0 868 c0 478
-2 873 -5 878 -7 10 -408 13 -418 2z"/>
<path d="M1648 2385 c-12 -13 -10 -1753 2 -1757 5 -2 104 -2 220 0 l210 3 0
399 0 400 25 6 c45 11 92 -4 117 -39 23 -32 23 -35 26 -396 1 -200 4 -366 6
-370 2 -3 92 -4 201 -1 l196 5 -1 352 c0 332 -2 354 -21 398 -27 60 -91 123
-134 131 -36 7 -71 37 -61 53 4 5 25 13 49 16 23 4 60 19 82 34 34 22 44 37
63 96 20 63 22 85 19 215 -5 198 -29 281 -104 351 -93 88 -146 98 -557 106
-182 3 -334 2 -338 -2z m531 -284 c58 -30 64 -44 69 -141 7 -138 -4 -198 -41
-232 -26 -25 -37 -29 -76 -26 l-46 3 -3 194 c-2 134 1 198 9 207 16 19 43 17
88 -5z"/>
<path d="M2873 2383 c-10 -4 -13 -189 -13 -879 l0 -874 390 0 390 0 -2 167 -3
168 -165 5 -165 5 -3 189 c-2 128 1 193 9 202 8 10 47 14 141 16 l130 3 -1
148 c0 81 0 151 -1 157 0 5 -57 11 -137 12 l-138 3 -3 161 c-2 134 0 163 13
174 10 8 58 13 152 14 l138 1 3 159 c2 121 -1 161 -10 168 -14 8 -704 10 -725
1z"/>
</g>
</svg>
